<svg xmlns="http://www.w3.org/2000/svg" width="59.12" height="63.518" viewBox="0 0 59.12 63.518">
  <path id="AI_Savings" data-name="AI Savings" d="M-1765.931-2088.222a3.167,3.167,0,0,1-2.022.741h-13.862a3.209,3.209,0,0,1-2.893-1.906,3.211,3.211,0,0,1,.526-3.424,3.189,3.189,0,0,1,0-4.265,3.213,3.213,0,0,1-.526-3.426,3.208,3.208,0,0,1,2.893-1.906h1.464c-1.939-10.3,3.488-22.385,11.56-27.854-.382-.59-.183-2.391-.229-3.068a2.1,2.1,0,0,1,.587-1.427l-2.448-8.174a2.119,2.119,0,0,1,.859-2.386l7.935-5.29a2.149,2.149,0,0,1,1.729-.281,2.143,2.143,0,0,1,1.362,1.1l1.723,3.444,6.809-.683a2.149,2.149,0,0,1,1.854.778,2.147,2.147,0,0,1,.4,1.971l-2.782,9.055a2.128,2.128,0,0,1,1.169,1.892c-.046.669.153,2.488-.229,3.069,4.905,3.334,8.962,9.238,10.833,15.843a43.631,43.631,0,0,0,11.723,4.758,2.139,2.139,0,0,1,1.586,1.7,2.14,2.14,0,0,1-.9,2.143l-11.7,7.8a2.114,2.114,0,0,1-1.589.32c-2.957,6.584-11.336,10.256-19.51,10.255A25.283,25.283,0,0,1-1765.931-2088.222Zm-12.233-14.187h10.21a3.208,3.208,0,0,1,2.893,1.906,3.211,3.211,0,0,1-.526,3.426,3.189,3.189,0,0,1,0,4.265,3.129,3.129,0,0,1,.778,2.658,26.333,26.333,0,0,0,5.385.54c8.013,0,14.187-3.1,17.171-8.548-5.036-1.232-16.25-4.918-24.728-14.592a2.145,2.145,0,0,1-.492-1.71,2.15,2.15,0,0,1,.966-1.495l13.1-8.273a2.139,2.139,0,0,1,2.76.419,44.452,44.452,0,0,0,8.595,7.608c-2.094-5.55-5.8-10.31-10.094-12.862h-14.545C-1774.591-2124.35-1780.28-2112.241-1778.163-2102.409Zm-4.718,11.729a1.066,1.066,0,0,0,1.066,1.066h13.862a1.066,1.066,0,0,0,1.067-1.066,1.067,1.067,0,0,0-1.067-1.067h-13.862A1.067,1.067,0,0,0-1782.881-2090.68Zm0-4.265a1.068,1.068,0,0,0,1.066,1.066h13.862a1.066,1.066,0,0,0,1.067-1.066,1.067,1.067,0,0,0-1.067-1.067h-13.862A1.068,1.068,0,0,0-1782.881-2094.945Zm0-4.265a1.066,1.066,0,0,0,1.066,1.066h13.862a1.066,1.066,0,0,0,1.067-1.066,1.067,1.067,0,0,0-1.067-1.066h-13.862A1.067,1.067,0,0,0-1782.881-2099.21Zm17.515-14.945c9.661,11.031,23.083,13.9,25.675,14.365l11.7-7.8q-2.126-.519-4.19-1.238a.8.8,0,0,1,.1.355c-.08.853,1.182,1.59.27,2.313l-3.315,2.372a.8.8,0,0,1-.716.109,2.3,2.3,0,0,0-2.075.326.8.8,0,0,1-.683.124,34.25,34.25,0,0,1-13.456-7.215.8.8,0,0,1-.072-1.117,1.435,1.435,0,0,0,.359-.943c-.07-.418-.122-.927.313-1.178l3.67-2.319c.453-.273.738-.059,1.07.154a1.38,1.38,0,0,0,.832.282,1.586,1.586,0,0,0,.685-.184l.072-.031a47.388,47.388,0,0,1-7.138-6.643Zm23.631,8.173c1.228.491,2.328.853,3.213,1.108a3.89,3.89,0,0,1,2.769-.44l2.4-1.718a3.635,3.635,0,0,1-.259-.775,25.9,25.9,0,0,1-4.97-1.93C-1738.5-2108.2-1739.768-2106.667-1741.735-2105.983Zm-3.987-2.3c.78,2.143,6.032.617,5.507-1.616a1.921,1.921,0,0,0-1.934-1.038C-1743.911-2110.937-1746.1-2109.692-1745.722-2108.283Zm-4.451-4.323a3.006,3.006,0,0,1-.305,1.415,28.884,28.884,0,0,0,3.131,2.321c.106-1.739,2.316-3.456,4.441-3.627q-.992-.787-1.9-1.67a3.071,3.071,0,0,1-2.575-.2Zm10.081.169a24.2,24.2,0,0,0,5.111,2.526,45.956,45.956,0,0,1-5.382-2.706Zm-21.469-18.761c4.282,0,9.591,0,9.615-.007l-.013-2.126h-.408s-2.362,0-5.177,0c-4.17,0-9.341,0-9.343.007v2.127c.008,0,.445,0,1.165,0Zm-7.277-12.345,2.42,8.08h12.2l-6.685-13.371Zm12.587-.76,3.6,7.206,2.4-7.808Z" transform="translate(1785 2150.961)" fill="#00a6ff"/>
</svg>
