<svg xmlns="http://www.w3.org/2000/svg" width="63.643" height="63.517" viewBox="0 0 63.643 63.517">
  <path id="Path_3894" data-name="Path 3894" d="M-2016.014-1626.939a4.991,4.991,0,0,1-4.986-4.985v-31.12a3.405,3.405,0,0,1,2.294-3.218l11.853-4.087-2.286-7.5,1.907-.581,1.452,4.762a24.242,24.242,0,0,1,21.964-11.571l-.093,1.738a14.3,14.3,0,0,1,12.261-6.956,14.307,14.307,0,0,1,14.291,14.291,14.307,14.307,0,0,1-14.291,14.29,14.307,14.307,0,0,1-14.29-14.29,14.207,14.207,0,0,1,1.885-7.089,22.4,22.4,0,0,0-20.013,10.612l4.9-1.492.313,1.028,2.872-.99a2.993,2.993,0,0,1,3.966,2.828v9.633h15.089a3,3,0,0,1,2.991,2.992v11.973a22.4,22.4,0,0,0,7.305-11.347l-4.884,2.388-.876-1.792,7.594-3.713,3.713,7.594-1.792.876-2.027-4.147a24.412,24.412,0,0,1-9.033,12.662v14.22a2.994,2.994,0,0,1-2.991,2.991Zm-2.992-4.985a3,3,0,0,0,2.992,2.991h39.083a1,1,0,0,0,1-1v-7.467h-10.391a7.43,7.43,0,0,1-7.422-7.422,7.431,7.431,0,0,1,7.422-7.422h10.391v-6.4a1,1,0,0,0-1-1c-.014,0-41.247.071-42.075-.307Zm27.252-12.9a5.435,5.435,0,0,0,5.429,5.429h10.391v-10.857h-10.391A5.435,5.435,0,0,0-1991.754-1644.819Zm-26.3-19.557a1.41,1.41,0,0,0,.46,2.74h23.583c-.145-9.748.336-9.907-.418-10.444a.726.726,0,0,0-.477-.191C-1995.845-1672.272-1998.881-1670.776-2018.057-1664.376Zm34.111-11.789a12.31,12.31,0,0,0,12.3,12.3,12.31,12.31,0,0,0,12.3-12.3,12.31,12.31,0,0,0-12.3-12.3A12.31,12.31,0,0,0-1983.946-1676.165Zm-6.969,32.407a2.994,2.994,0,0,1,2.991-2.992,3,3,0,0,1,2.991,2.992,2.994,2.994,0,0,1-2.991,2.991A2.994,2.994,0,0,1-1990.914-1643.758Zm1.993,0a1,1,0,0,0,1.995,0,.656.656,0,0,0-.724-.728C-1988.221-1644.486-1988.921-1644.084-1988.921-1643.758Zm16.275-22.437v-2.31h-4.564v-1.994h4.564v-4.62h-1.257a4.308,4.308,0,0,1-4.3-4.3,4.308,4.308,0,0,1,4.3-4.3h1.257v-2.41h1.994v2.41h4.564v1.994h-4.564v4.619h1.257a4.308,4.308,0,0,1,4.3,4.3,4.308,4.308,0,0,1-4.3,4.3h-1.257v2.31Zm1.994-4.3h1.257a2.313,2.313,0,0,0,2.31-2.31,2.312,2.312,0,0,0-2.31-2.309h-1.257Zm-5.561-8.923a2.312,2.312,0,0,0,2.309,2.309h1.257v-4.619h-1.257A2.312,2.312,0,0,0-1976.213-1679.422Z" transform="translate(2021 1690.457)" fill="#00a6ff" opacity="0.5"/>
</svg>
