<svg xmlns="http://www.w3.org/2000/svg" width="68.857" height="54.575" viewBox="0 0 68.857 54.575">
  <g id="credit-card" transform="translate(0 -53.099)">
    <path id="Path_3921" data-name="Path 3921" d="M67.633,58.98a5.138,5.138,0,0,0-3.518-1.814l-48.49-4.049a5.171,5.171,0,0,0-5.583,4.707l-.976,9.153h-3.9A5.178,5.178,0,0,0,0,72.149V102.5a5.178,5.178,0,0,0,5.172,5.172H53.83A5.178,5.178,0,0,0,59,102.5V97.578l1.727.144q.218.018.434.018A5.179,5.179,0,0,0,66.313,93l2.526-30.248a5.138,5.138,0,0,0-1.205-3.77ZM5.172,69.667H53.83a2.485,2.485,0,0,1,2.482,2.482v2.766H2.69V72.149a2.485,2.485,0,0,1,2.482-2.482ZM2.69,77.6H56.312v5.58H2.69Zm51.14,27.38H5.172A2.485,2.485,0,0,1,2.69,102.5V85.874H56.312V102.5a2.485,2.485,0,0,1-2.482,2.482ZM66.158,62.527,63.632,92.775a2.485,2.485,0,0,1-2.68,2.267L59,94.879V72.149a5.178,5.178,0,0,0-5.172-5.172H11.772l.947-8.881c0-.01,0-.02,0-.031A2.484,2.484,0,0,1,15.4,55.8l48.49,4.049a2.482,2.482,0,0,1,2.267,2.68Z" transform="translate(0 0)" fill="#00a6ff"/>
    <path id="Path_3922" data-name="Path 3922" d="M285.723,326.532H272.051a1.42,1.42,0,0,0-1.421,1.42v8.919a1.42,1.42,0,0,0,1.421,1.421h13.671a1.42,1.42,0,0,0,1.42-1.421v-8.919A1.42,1.42,0,0,0,285.723,326.532Zm-1.421,8.919h-10.83v-6.078H284.3Z" transform="translate(-234.836 -237.661)" fill="#00a6ff"/>
  </g>
</svg>
