<svg xmlns="http://www.w3.org/2000/svg" width="63.352" height="63.517" viewBox="0 0 63.352 63.517">
  <g id="cash-payment" transform="translate(-0.333)">
    <path id="Path_3919" data-name="Path 3919" d="M62.692,95.906H55.745V76.553h6.947a.992.992,0,1,0,0-1.985h-7.94a.953.953,0,0,0-.293.05,15.686,15.686,0,0,0-6.53-2.531c-3.97-.5-7.384.665-10.138,1.6a21.591,21.591,0,0,1-3.052.883,34.984,34.984,0,0,1-7.83.5h-1.93c-2.233,0-3.474.749-4.168,1.7L9.1,69.75c-1.275-.774-5.2-3.121-7.741.253a4.66,4.66,0,0,0-.992,3.474,5.151,5.151,0,0,0,2.183,3.374c3.508,2.63,15.383,11.413,20.5,13.989s7.285,3.082,12.847,3.082H53.76V96.9a.992.992,0,0,0,.992.992h7.94a.992.992,0,0,0,0-1.985Zm-26.8-3.97c-5.285,0-7.076-.432-11.964-2.873C18.97,86.582,7.214,77.868,3.74,75.263A3.211,3.211,0,0,1,2.316,73.2a2.8,2.8,0,0,1,.63-1.985,2.139,2.139,0,0,1,1.811-.992,6.949,6.949,0,0,1,3.335,1.241l11.989,7.2a5.672,5.672,0,0,0-.065.873c0,3.657,4.615,4.962,8.932,4.962,3.9,0,12.262.5,12.346.5A.994.994,0,1,0,41.414,83c-.347,0-8.5-.5-12.465-.5-3.474,0-6.947-.923-6.947-2.977,0-1.226.352-2.481,2.977-2.481.66,0,1.27,0,1.876.035a37.3,37.3,0,0,0,8.213-.531,22.331,22.331,0,0,0,3.359-.992c2.561-.868,5.751-1.95,9.255-1.489a14.034,14.034,0,0,1,6.079,2.481V91.936Z" transform="translate(0 -34.374)" fill="#00a6ff"/>
    <path id="Path_3920" data-name="Path 3920" d="M44.081,31.957a.992.992,0,0,0,1.489,0l17.4-20.345a.992.992,0,0,0-.754-1.638H54.5V.992A.992.992,0,0,0,53.509,0H36.141a.992.992,0,0,0-.992.992V9.964H27.422a.992.992,0,0,0-.754,1.638Zm-7.94-20.008a.992.992,0,0,0,.992-.992V1.985H52.517v8.972a.992.992,0,0,0,.992.992h6.565L44.825,29.774,29.576,11.949Z" transform="translate(-13.147)" fill="#00a6ff"/>
  </g>
</svg>
