<svg xmlns="http://www.w3.org/2000/svg" width="63.507" height="63.517" viewBox="0 0 63.507 63.517">
  <g id="arrow-refresh-transfer-user_interface-interface" data-name="arrow-refresh-transfer-user interface-interface" transform="translate(-4 -3.995)">
    <path id="Path_3917" data-name="Path 3917" d="M66.382,34.137a3.313,3.313,0,0,0-2.5-1.16h-.132a3.438,3.438,0,0,0-3.364,2.967A24.556,24.556,0,0,1,42.275,55.992a25.022,25.022,0,0,1-26.982-9.866,1.134,1.134,0,0,1,.932-1.782h5.92a2.268,2.268,0,1,0,0-4.536H4V57.952a2.268,2.268,0,1,0,4.536,0V51.9a1.134,1.134,0,0,1,2.033-.69A31.754,31.754,0,0,0,67.13,36.781a3.289,3.289,0,0,0-.747-2.643Z" transform="translate(0 3.885)" fill="#00a6ff"/>
    <path id="Path_3918" data-name="Path 3918" d="M49.32,27.816H67.465V9.671a2.268,2.268,0,1,0-4.536,0v6.056a1.134,1.134,0,0,1-2.033.69A31.754,31.754,0,0,0,4.359,30.685a3.4,3.4,0,1,0,6.733,1A24.941,24.941,0,0,1,56.172,21.5a1.134,1.134,0,0,1-.932,1.782H49.32a2.268,2.268,0,0,0,0,4.536Z" transform="translate(0.043)" fill="#00a6ff"/>
  </g>
</svg>
