<svg xmlns="http://www.w3.org/2000/svg" width="64.669" height="63.518" viewBox="0 0 64.669 63.518">
  <path id="Path_3895" data-name="Path 3895" d="M-1599.813-1756.264v-4.538h11.345v4.538Zm-13.613,0v-4.538h11.344v4.538Zm-13.613,0v-4.538h11.344v4.538Zm27.227-6.807v-4.538h11.345v4.538Zm-13.613,0v-4.538h11.344v4.538Zm13.613-6.807v-4.538h11.345v4.538Zm-52.185-2.269a1.135,1.135,0,0,1,1.135-1.135c29.666,0,53.977-16.688,55.508-37.607l-3.585,4.3a1.136,1.136,0,0,1-1.6.148,1.136,1.136,0,0,1-.148-1.6l5.672-6.807a1.136,1.136,0,0,1,.874-.41,1.136,1.136,0,0,1,.874.41l5.672,6.807a1.132,1.132,0,0,1,.258.831,1.137,1.137,0,0,1-.406.77,1.134,1.134,0,0,1-.725.26,1.136,1.136,0,0,1-.874-.351l-3.732-4.538c-1.384,22.258-26.773,40.057-57.789,40.057A1.134,1.134,0,0,1-1652-1772.146Zm.675-28.474a14.75,14.75,0,0,1,7.589-17.658,14.748,14.748,0,0,1,18.6,4.838,14.559,14.559,0,0,1,2.632,8.4,14.748,14.748,0,0,1-12.509,14.591,14.8,14.8,0,0,1-2.249.172A14.752,14.752,0,0,1-1651.323-1800.62Zm10.67.112a1.135,1.135,0,0,0,1.135,1.135h1.134v1.134a1.135,1.135,0,0,0,1.135,1.135,1.135,1.135,0,0,0,1.134-1.135v-1.134a3.4,3.4,0,0,0,3.4-3.4,3.4,3.4,0,0,0-3.4-3.4h-2.269a1.134,1.134,0,0,1-1.134-1.134,1.135,1.135,0,0,1,1.134-1.135h3.4a1.134,1.134,0,0,0,1.134-1.134,1.135,1.135,0,0,0-1.134-1.135h-1.135v-1.134a1.135,1.135,0,0,0-1.134-1.135,1.135,1.135,0,0,0-1.135,1.135v1.134a3.4,3.4,0,0,0-3.4,3.4,3.4,3.4,0,0,0,3.4,3.4h2.269a1.135,1.135,0,0,1,1.135,1.135,1.135,1.135,0,0,1-1.135,1.135h-3.4A1.134,1.134,0,0,0-1640.653-1800.508Z" transform="translate(1652 1819.781)" fill="#00a6ff" opacity="0.5"/>
</svg>
