<svg xmlns="http://www.w3.org/2000/svg" width="55.579" height="62.517" viewBox="0 0 55.579 62.517">
  <path id="Utility_Payment" data-name="Utility Payment" d="M-2577.326-3236.816l-4.854-3.238-3.853,3.24a2.059,2.059,0,0,1-2.027.074,2.009,2.009,0,0,1-1.06-1.725v-29.768l-6.955-4.466-6.749,5.062a1.983,1.983,0,0,1-2.078.186,1.983,1.983,0,0,1-1.1-1.775v-19.849a9.936,9.936,0,0,1,9.924-9.924h35.73a9.936,9.936,0,0,1,9.924,9.924v50.61a2.04,2.04,0,0,1-1.165,1.79,2.015,2.015,0,0,1-1.892-.115l-4.884-3.1-4.9,3.1a1.984,1.984,0,0,1-2.162-.025l-4.853-3.238-4.854,3.238a1.982,1.982,0,0,1-1.1.333A1.982,1.982,0,0,1-2577.326-3236.816Zm8.157-6.269,4.884,3.253,4.874-3.081a1.986,1.986,0,0,1,2.124,0l3.9,1.836v-49c0-3.289-3.666-5.954-6.954-5.954h-27.842a12.942,12.942,0,0,1,2.037,6.954v47.9l2.868-1.908a1.986,1.986,0,0,1,2.2,0l4.853,3.236,4.854-3.237a1.983,1.983,0,0,1,1.1-.333A1.983,1.983,0,0,1-2569.169-3243.085Zm-34.861-46.99v19.88l6.764-4.573a2.042,2.042,0,0,1,2.382,0l5.763,3.573v-18.88c0-3.289-3.667-6.955-6.955-6.955S-2604.03-3293.364-2604.03-3290.075Zm23.835,40.7a1.985,1.985,0,0,1-1.985-1.985,1.984,1.984,0,0,1,1.985-1.984h9.925a1.985,1.985,0,0,1,1.985,1.984,1.986,1.986,0,0,1-1.985,1.985Zm0-9.925a1.985,1.985,0,0,1-1.985-1.985,1.984,1.984,0,0,1,1.985-1.985h19.85a1.984,1.984,0,0,1,1.984,1.985,1.984,1.984,0,0,1-1.984,1.985Zm7.941-11.91a1.986,1.986,0,0,1-1.986-1.986,1.985,1.985,0,0,1,1.986-1.984h1.984v-1.985a3.97,3.97,0,0,1-3.97-3.97v-1.984a3.955,3.955,0,0,1,1.986-3.418v-.553a1.985,1.985,0,0,1,1.984-1.984,1.986,1.986,0,0,1,1.985,1.984,1.985,1.985,0,0,1,1.985,1.985,1.985,1.985,0,0,1-1.985,1.986h-1.985v1.984a3.97,3.97,0,0,1,3.97,3.97v1.985a3.957,3.957,0,0,1-1.985,3.418v.552a1.985,1.985,0,0,1-1.985,1.984A1.984,1.984,0,0,1-2572.255-3271.21Z" transform="translate(2606 3299)" fill="#00a6ff"/>
</svg>
