<svg xmlns="http://www.w3.org/2000/svg" width="118" height="118" viewBox="0 0 118 118">
  <g id="Group_2431" data-name="Group 2431" transform="translate(-1331 -328)">
    <circle id="Ellipse_22" data-name="Ellipse 22" cx="59" cy="59" r="59" transform="translate(1331 328)" fill="#fff"/>
    <g id="global-network" transform="translate(1363.566 360.566)">
      <g id="Group_674" data-name="Group 674" transform="translate(24.956 6.149)">
        <g id="Group_673" data-name="Group 673">
          <path id="Path_683" data-name="Path 683" d="M241.222,59.44h1.9v7.087h-1.9Z" transform="translate(-241.222 -59.44)" fill="#17799c"/>
        </g>
      </g>
      <g id="Group_676" data-name="Group 676" transform="translate(24.956 39.733)">
        <g id="Group_675" data-name="Group 675">
          <path id="Path_684" data-name="Path 684" d="M241.222,384.061h1.9v6.575h-1.9Z" transform="translate(-241.222 -384.061)" fill="#17799c"/>
        </g>
      </g>
      <g id="Group_677" data-name="Group 677" transform="translate(26.485 6.638)">
        <path id="Path_685" data-name="Path 685" d="M256,64.162h1.575v6.6H256Z" transform="translate(-256 -64.162)" fill="#0b495d"/>
        <path id="Path_686" data-name="Path 686" d="M256,384.061h1.575v6.575H256Z" transform="translate(-256 -350.966)" fill="#0b495d"/>
      </g>
      <circle id="Ellipse_34" data-name="Ellipse 34" cx="12.921" cy="12.921" r="12.921" transform="translate(13.564 13.564)" fill="#7be2f6"/>
      <g id="Group_686" data-name="Group 686" transform="translate(6.51 7.852)">
        <g id="Group_678" data-name="Group 678" transform="translate(1.245 0)">
          <path id="Path_687" data-name="Path 687" d="M0,0H3.1V11.625H0Z" transform="translate(0 2.194) rotate(-45)" fill="#17799c"/>
        </g>
        <g id="Group_679" data-name="Group 679" transform="translate(28.278 0.003)">
          <path id="Path_688" data-name="Path 688" d="M0,0H11.606V3.1H0Z" transform="translate(0 8.205) rotate(-45)" fill="#0b495d"/>
        </g>
        <g id="Group_680" data-name="Group 680" transform="translate(1.242 26.847)">
          <path id="Path_689" data-name="Path 689" d="M0,0H11.609V3.1H0Z" transform="translate(0 8.208) rotate(-45)" fill="#17799c"/>
        </g>
        <g id="Group_682" data-name="Group 682" transform="translate(33.223 17.074)">
          <g id="Group_681" data-name="Group 681">
            <path id="Path_690" data-name="Path 690" d="M384.061,240.936h7.158v3.1h-7.158Z" transform="translate(-384.061 -240.936)" fill="#0b495d"/>
          </g>
        </g>
        <g id="Group_684" data-name="Group 684" transform="translate(0 17.074)">
          <g id="Group_683" data-name="Group 683">
            <path id="Path_691" data-name="Path 691" d="M62.929,240.936h6.726v3.1H62.929Z" transform="translate(-62.929 -240.936)" fill="#17799c"/>
          </g>
        </g>
        <g id="Group_685" data-name="Group 685" transform="translate(28.282 26.859)">
          <path id="Path_692" data-name="Path 692" d="M0,0H3.1V11.6H0Z" transform="translate(0 2.194) rotate(-45)" fill="#0b495d"/>
        </g>
      </g>
      <g id="Group_689" data-name="Group 689" transform="translate(22.589 45.105)">
        <g id="Group_687" data-name="Group 687" transform="translate(0 0)">
          <path id="Path_693" data-name="Path 693" d="M222.242,443.783a3.9,3.9,0,0,1,0-7.8C224.39,435.982,224.39,443.783,222.242,443.783Z" transform="translate(-218.347 -435.982)" fill="#fed943"/>
        </g>
        <g id="Group_688" data-name="Group 688" transform="translate(3.895)">
          <path id="Path_694" data-name="Path 694" d="M256,435.981v7.8a3.9,3.9,0,0,0,0-7.8Z" transform="translate(-256 -435.981)" fill="#fcbe2c"/>
        </g>
      </g>
      <g id="Group_692" data-name="Group 692" transform="translate(22.589 0)">
        <g id="Group_690" data-name="Group 690">
          <path id="Path_695" data-name="Path 695" d="M222.242,7.8a3.9,3.9,0,0,1,0-7.8C224.39,0,224.39,7.8,222.242,7.8Z" transform="translate(-218.347)" fill="#fed943"/>
        </g>
        <g id="Group_691" data-name="Group 691" transform="translate(3.895)">
          <path id="Path_696" data-name="Path 696" d="M256,0V7.8A3.9,3.9,0,0,0,256,0Z" transform="translate(-256)" fill="#fcbe2c"/>
        </g>
      </g>
      <g id="Group_693" data-name="Group 693" transform="translate(26.485 13.564)">
        <path id="Path_697" data-name="Path 697" d="M256,131.108V156.95a12.921,12.921,0,1,0,0-25.842Z" transform="translate(-256 -131.108)" fill="#55d0f9"/>
      </g>
      <path id="Path_698" data-name="Path 698" d="M128.095,140.072c-.115.186-.233-1.748-.354-1.57a16.422,16.422,0,0,1-2.255-5.07h2.609v-3.1h-3.18a23.34,23.34,0,0,1,.017-5.173H128.1v-3.1h-2.567a16.344,16.344,0,0,1,2.213-4.916c.122.178.24-2.146.354-1.961v-2.229q-.177,0-.355,0a14.8,14.8,0,1,0,0,29.6c.119,0,.237,0,.355,0Zm-11.763-9.744a11.73,11.73,0,0,1,0-5.173h5.479a26.143,26.143,0,0,0-.135,2.664q0,1.273.12,2.51h-5.464Zm1.192,3.1h4.769a20.779,20.779,0,0,0,2.079,5.512A11.751,11.751,0,0,1,117.524,133.432Zm4.806-11.381h-4.806a11.75,11.75,0,0,1,6.953-5.543A20.61,20.61,0,0,0,122.331,122.051Z" transform="translate(-101.256 -101.257)" fill="#55d0f9"/>
      <path id="Path_699" data-name="Path 699" d="M256,112.939s0,4.194,0,4.194a16.343,16.343,0,0,1,2.213,4.916H256v3.1h2.809a23.336,23.336,0,0,1,.017,5.173H256v3.1h2.255A16.425,16.425,0,0,1,256,138.5s0,4.04,0,4.04a14.8,14.8,0,1,0,0-29.6Zm10.216,9.11H261.41a20.612,20.612,0,0,0-2.147-5.543A11.75,11.75,0,0,1,266.216,122.049Zm-6.848,16.892a20.782,20.782,0,0,0,2.079-5.512h4.769A11.751,11.751,0,0,1,259.368,138.941Zm2.577-8.615q.119-1.234.12-2.51a26.139,26.139,0,0,0-.135-2.664h5.479a11.731,11.731,0,0,1,0,5.173h-5.464Z" transform="translate(-229.515 -101.255)" fill="#00b9eb"/>
      <g id="Group_694" data-name="Group 694" transform="translate(0 0)">
        <ellipse id="Ellipse_35" data-name="Ellipse 35" cx="3.895" cy="3.901" rx="3.895" ry="3.901" transform="translate(45.179 22.584)" fill="#fcbe2c"/>
        <ellipse id="Ellipse_36" data-name="Ellipse 36" cx="3.895" cy="3.901" rx="3.895" ry="3.901" transform="translate(0 22.584)" fill="#fed943"/>
        <ellipse id="Ellipse_37" data-name="Ellipse 37" cx="5.435" cy="5.442" rx="5.435" ry="5.442" transform="translate(0)" fill="#badb47"/>
        <ellipse id="Ellipse_38" data-name="Ellipse 38" cx="5.435" cy="5.442" rx="5.435" ry="5.442" transform="translate(42.1)" fill="#e43b54"/>
        <ellipse id="Ellipse_39" data-name="Ellipse 39" cx="5.435" cy="5.442" rx="5.435" ry="5.442" transform="translate(0 42.085)" fill="#fd657d"/>
        <ellipse id="Ellipse_40" data-name="Ellipse 40" cx="5.435" cy="5.442" rx="5.435" ry="5.442" transform="translate(42.1 42.085)" fill="#92ca32"/>
      </g>
    </g>
  </g>
</svg>
