<svg xmlns="http://www.w3.org/2000/svg" width="118" height="118" viewBox="0 0 118 118">
  <g id="Group_2430" data-name="Group 2430" transform="translate(-826 -328)">
    <circle id="Ellipse_22" data-name="Ellipse 22" cx="59" cy="59" r="59" transform="translate(826 328)" fill="#fff"/>
    <g id="reduce-cost" transform="translate(860.599 359.881)">
      <g id="Group_671" data-name="Group 671" transform="translate(0.796 7.369)">
        <g id="Group_670" data-name="Group 670" transform="translate(3.25)">
          <path id="Path_665" data-name="Path 665" d="M112.849,275.132H69.255" transform="translate(-68.562 -253.291)" fill="#e9a52d"/>
          <g id="Group_669" data-name="Group 669">
            <path id="Path_666" data-name="Path 666" d="M62.724,69.95v21.3h5.4V69.95a.542.542,0,0,0-.542-.542H63.266A.542.542,0,0,0,62.724,69.95Z" transform="translate(-62.724 -69.408)" fill="#6dc17d"/>
            <path id="Path_667" data-name="Path 667" d="M175.041,104.237V121.9h5.4V104.237a.542.542,0,0,0-.542-.542h-4.312A.542.542,0,0,0,175.041,104.237Z" transform="translate(-163.117 -100.055)" fill="#e9a52d"/>
            <path id="Path_668" data-name="Path 668" d="M287.358,138.524v14.019h5.4V138.524a.542.542,0,0,0-.542-.542H287.9A.542.542,0,0,0,287.358,138.524Z" transform="translate(-263.51 -130.702)" fill="#5392f9"/>
            <path id="Path_669" data-name="Path 669" d="M399.675,172.812V183.19h5.4V172.812a.542.542,0,0,0-.542-.542h-4.312A.542.542,0,0,0,399.675,172.812Z" transform="translate(-363.903 -161.35)" fill="#91dafa"/>
          </g>
        </g>
        <path id="Path_670" data-name="Path 670" d="M32.114,194.646v-30.38a.976.976,0,0,1,.976-.976H53.809a.976.976,0,0,1,.976.976v30.38a.976.976,0,0,1-.976.976H33.09A.976.976,0,0,1,32.114,194.646Z" transform="translate(-32.114 -153.323)" fill="#5392f9"/>
        <path id="Path_671" data-name="Path 671" d="M212.332,163.29h-2.866a.976.976,0,0,1,.976.976v30.38a.976.976,0,0,1-.976.976h2.866a.976.976,0,0,0,.976-.976v-30.38A.976.976,0,0,0,212.332,163.29Z" transform="translate(-190.638 -153.323)" fill="#4071f7"/>
        <path id="Path_672" data-name="Path 672" d="M74.753,211.264v2.908a.612.612,0,0,0,.612.612H87.759a.612.612,0,0,0,.612-.612v-2.908a.612.612,0,0,0-.612-.612H75.365A.612.612,0,0,0,74.753,211.264Z" transform="translate(-70.226 -195.657)" fill="#f7f3f1"/>
        <path id="Path_673" data-name="Path 673" d="M87.758,305.822H75.364a.612.612,0,0,1-.612-.612V292.816a.612.612,0,0,1,.612-.612H87.758a.612.612,0,0,1,.612.612V305.21A.612.612,0,0,1,87.758,305.822Z" transform="translate(-70.225 -268.551)" fill="#91dafa"/>
        <path id="Path_674" data-name="Path 674" d="M81.56,292.2v6.809H74.752v-6.2a.611.611,0,0,1,.612-.612Z" transform="translate(-70.225 -268.552)" fill="#f7f3f1"/>
        <path id="Path_675" data-name="Path 675" d="M145.689,356.341v6.2a.612.612,0,0,1-.612.612h-6.2v-6.808Z" transform="translate(-127.545 -325.879)" fill="#6cbff8"/>
        <circle id="Ellipse_33" data-name="Ellipse 33" cx="8.228" cy="8.228" r="8.228" transform="translate(27.098 29.735)" fill="#e9a52d"/>
        <path id="Path_676" data-name="Path 676" d="M352.794,349.5a8.269,8.269,0,0,0-1.433.127,8.227,8.227,0,0,1,0,16.2,8.227,8.227,0,1,0,1.433-16.329Z" transform="translate(-317.468 -319.761)" fill="#e38523"/>
      </g>
      <g id="Group_672" data-name="Group 672" transform="translate(0 0)">
        <path id="Path_677" data-name="Path 677" d="M72.947,83.752H70.623V74.17a1.339,1.339,0,0,0-1.338-1.338H64.973a1.339,1.339,0,0,0-1.338,1.338v9.582H58.7V70.53a1.339,1.339,0,0,0-1.338-1.338H53.049a1.339,1.339,0,0,0-1.338,1.338V83.752H48.876v-10.1A1.774,1.774,0,0,0,47.1,71.879h-.33V66.89a1.34,1.34,0,0,0-1.338-1.339H41.124a1.34,1.34,0,0,0-1.338,1.339v4.989H34.851V63.25a1.34,1.34,0,0,0-1.339-1.338H29.2a1.34,1.34,0,0,0-1.339,1.338v8.629H26.385a1.774,1.774,0,0,0-1.772,1.772v6.326a.8.8,0,1,0,1.592,0V73.651a.18.18,0,0,1,.18-.18H47.1a.18.18,0,0,1,.18.18v30.38a.18.18,0,0,1-.18.18H26.385a.18.18,0,0,1-.18-.18V83.692a.8.8,0,1,0-1.592,0v20.338a1.774,1.774,0,0,0,1.772,1.772H47.1a1.774,1.774,0,0,0,1.772-1.772V85.344H72.947a.8.8,0,0,0,0-1.592ZM41.379,67.144h3.8v4.735h-3.8ZM29.455,63.5h3.8v8.374h-3.8Zm35.772,10.92h3.8v9.328h-3.8ZM53.3,70.784h3.8V83.752H53.3Z" transform="translate(-24.613 -55.339)"/>
        <path id="Path_678" data-name="Path 678" d="M68.659,208.877H81.053a1.41,1.41,0,0,0,1.408-1.408v-2.908a1.41,1.41,0,0,0-1.408-1.408H68.659a1.41,1.41,0,0,0-1.408,1.408v2.908A1.41,1.41,0,0,0,68.659,208.877Zm.185-4.131H80.868v2.539H68.843Z" transform="translate(-62.724 -181.585)"/>
        <path id="Path_679" data-name="Path 679" d="M67.251,298.507a1.409,1.409,0,0,0,1.408,1.408H81.053a1.41,1.41,0,0,0,1.408-1.408V286.113a1.41,1.41,0,0,0-1.408-1.408H68.659a1.409,1.409,0,0,0-1.408,1.408Zm1.592-5.4H74.06v5.216H68.843Zm6.809,5.216v-5.216h5.216v5.216Zm5.216-6.809H75.652V286.3h5.216ZM74.06,286.3v5.216H68.843V286.3Z" transform="translate(-62.724 -254.48)"/>
        <path id="Path_680" data-name="Path 680" d="M288.879,341.995A9.024,9.024,0,1,0,294.6,358a.8.8,0,0,0-1.009-1.232,7.432,7.432,0,1,1,2.725-5.752,7.369,7.369,0,0,1-.681,3.113.8.8,0,1,0,1.446.668,9.028,9.028,0,0,0-8.2-12.806Z" transform="translate(-252.757 -305.687)"/>
        <path id="Path_681" data-name="Path 681" d="M338.967,384.83a.8.8,0,0,0,.8-.8v-.644a2.722,2.722,0,0,0,2.244-2.115c.169-.946-.264-2.185-1.989-2.82a16.848,16.848,0,0,1-1.937-.78.452.452,0,0,1-.222-.468.839.839,0,0,1,.639-.7,2.422,2.422,0,0,1,2.006.462.8.8,0,0,0,1.021-1.222,4.371,4.371,0,0,0-1.763-.829v-.661a.8.8,0,1,0-1.592,0v.69c-.044.011-.087.023-.131.036a2.439,2.439,0,0,0-1.763,2.058,2.029,2.029,0,0,0,1.044,2.03c1.46.8,3.294.944,3.119,1.922a1.265,1.265,0,0,1-1.306.865,2.526,2.526,0,0,1-1.856-.779.8.8,0,1,0-1.18,1.069,4.04,4.04,0,0,0,2.073,1.189v.695a.8.8,0,0,0,.8.8Z" transform="translate(-302.846 -333.815)"/>
        <path id="Path_682" data-name="Path 682" d="M77.414,1.567,115.407,11.4l-2.464,1.339a.8.8,0,0,0,.76,1.4l3.686-2a1.384,1.384,0,0,0,.507-1.959l-2.251-3.54a.8.8,0,1,0-1.344.855l1.505,2.367L77.813.026a.8.8,0,1,0-.4,1.542Z" transform="translate(-71.275 0)"/>
      </g>
    </g>
  </g>
</svg>
