<svg xmlns="http://www.w3.org/2000/svg" xmlns:xlink="http://www.w3.org/1999/xlink" width="118" height="118" viewBox="0 0 118 118">
  <defs>
    <clipPath id="clip-path">
      <circle id="Ellipse_21" data-name="Ellipse 21" cx="55" cy="55" r="55" transform="translate(-0.23 -0.229)" fill="#fff" stroke="#707070" stroke-width="1"/>
    </clipPath>
    <linearGradient id="linear-gradient" x1="-115.998" y1="0.502" x2="-116.993" y2="0.502" gradientUnits="objectBoundingBox">
      <stop offset="0" stop-color="#a43113"/>
      <stop offset="1" stop-color="#6f160d"/>
    </linearGradient>
    <linearGradient id="linear-gradient-2" x1="-162.539" y1="0.501" x2="-163.544" y2="0.501" xlink:href="#linear-gradient"/>
  </defs>
  <g id="Group_47" data-name="Group 47" transform="translate(-346.895 -345.895)">
    <circle id="Ellipse_22" data-name="Ellipse 22" cx="59" cy="59" r="59" transform="translate(346.895 345.895)" fill="#fff"/>
    <g id="Mask_Group_1" data-name="Mask Group 1" transform="translate(351.124 350.124)" clip-path="url(#clip-path)">
      <g id="Group_46" data-name="Group 46" transform="translate(42.394 44.093)">
        <path id="Path_40" data-name="Path 40" d="M2.047,0A7.005,7.005,0,0,1,1.74,2.621,3.538,3.538,0,0,1,0,4.361a6.664,6.664,0,0,0,4.239,1.16,4.51,4.51,0,0,0,2.842-1.3A3.567,3.567,0,0,1,5.4.592Z" transform="translate(20.732 32.631)" fill="#f9933b"/>
        <path id="Path_44" data-name="Path 44" d="M6.718,1.715s-2.9,1.079-4.141.794-2.9-.389-2.523-.58a10.6,10.6,0,0,1,2.268.075c.47-.041.968-.1.968-.1a8.333,8.333,0,0,1-1.525-.435C1.185,1.2-.033.671.17.544s1.624.58,2.036.58l1.415.151A7.1,7.1,0,0,1,2.461.909C1.881.677.9.329,1.214.219s1.5.389,1.908.47,1.572.2,1.572.2a3.972,3.972,0,0,1-1-.307c-.435-.22-1-.522-.829-.58A12.589,12.589,0,0,0,4.816.4,8.519,8.519,0,0,1,7.246.26C8.191.393,6.718,1.715,6.718,1.715Z" transform="translate(32.498 70.446) rotate(-60)" fill="#ff794a"/>
        <path id="Path_41" data-name="Path 41" d="M4.587,2.383a15.363,15.363,0,0,0-2.041.406A14.44,14.44,0,0,0,0,3.683,4.059,4.059,0,0,0,.957,1.7,16.691,16.691,0,0,0,1.044,0a13.2,13.2,0,0,0,1.85.371C4.054.528,4.413.6,4.413.6v.951A1.9,1.9,0,0,0,4.587,2.383Z" transform="translate(21.736 32.631)" fill="#e66a11"/>
        <path id="Path_42" data-name="Path 42" d="M18.978.638A7,7,0,0,1,23.27.093a10.971,10.971,0,0,1,3.46,2.068c5.007,3.788,8.432,13.209,8.916,14.173.632,1.258-6.971,12.332-6.971,12.332H26.729s2.816-8.4,2.947-9.481-1-6.971-1-6.971a7.742,7.742,0,0,1,.371,3.642c-.354,1.676-5.764,8.583-6.246,11.517a10.748,10.748,0,0,0,1.026,5.857,26.42,26.42,0,0,1-9.348,1.258,27.688,27.688,0,0,1-8.9-2.824s7.928-6.072,7.313-9.424a82.871,82.871,0,0,0-3.23-10.149S6.5,17.772,6.6,19.184,4.982,32.051,4.982,32.051l-2.573.3S.542,20.446.038,18.529,4.219,2.25,7.148.678s4.75.1,4.75.1a10.581,10.581,0,0,0,4.529.528A9.008,9.008,0,0,0,18.978.638Z" transform="translate(8.847 36.221)" fill="#ffc256"/>
        <path id="Path_55" data-name="Path 55" d="M2.969,3.706A33.817,33.817,0,0,1,6.414,0,56.962,56.962,0,0,1,9.058,10.212c.429,4.048,2.383,5.927,5,6.344a4.639,4.639,0,0,0,4.152-1.45s-1.4,2.505-1.05,4.448A27.308,27.308,0,0,0,18.25,23.5,22,22,0,0,1,8.9,24.757,18.511,18.511,0,0,1,0,21.933S6.443,17.1,6.658,13.2,2.969,3.706,2.969,3.706Z" transform="translate(14.423 45.952)" fill="#ffa244"/>
        <path id="Path_56" data-name="Path 56" d="M0,.6.154,0s4.47,2.875,5.132,4.159S8.267,14.508,8.267,14.508c-.245.159-.605.431-.831.561,0,0-2.219-8.434-3.053-9.816A46,46,0,0,0,0,.6Z" transform="translate(37.844 48.235) rotate(34)" fill="#ffa244"/>
        <path id="Path_58" data-name="Path 58" d="M.834,1.729s2.9,1.09,4.135.818,2.9-.371,2.528-.58-1.891.093-2.273.058-.963-.11-.963-.11a8.253,8.253,0,0,0,1.531-.429c.58-.261,1.8-.783,1.595-.91s-1.624.58-2.036.58l-1.415.122A7.075,7.075,0,0,0,5.1.923C5.648.691,6.657.343,6.349.238A8.578,8.578,0,0,0,4.436.7C4.024.772,2.864.888,2.864.888a3.839,3.839,0,0,0,1-.3c.441-.22,1-.51.835-.58S3.4.453,2.742.389A8.606,8.606,0,0,0,.318.227C-.627.389.834,1.729.834,1.729Z" transform="translate(13.474 67.142) rotate(70)" fill="#ff794a"/>
        <path id="Path_57" data-name="Path 57" d="M3.759,0,16.57,6.967,15.806,9.5,1.977,6.645C3.339,5.518-1.291,2.116.361,1.485A18.36,18.36,0,0,0,3.759,0Z" transform="translate(14.449 50.294) rotate(69)" fill="#efb753"/>
        <path id="Path_59" data-name="Path 59" d="M13.8,7.284a28.613,28.613,0,0,1-6.756,0C3.793,6.814,0,.493,0,.493A76.588,76.588,0,0,1,7.661,0c2.934.052,3.248.481,3.248.481S13.675,6.379,13.8,7.284Z" transform="translate(24.032 42.333)" fill="#ffe280" opacity="0.57"/>
        <path id="Path_60" data-name="Path 60" d="M0,3.466s2.7-1.2,7.835-.435,13.727-.823,13.727-.823A5.593,5.593,0,0,0,16.087.132C12.671.886,8.3,1.988,6.832.938S2.441-1.272,0,3.466Z" transform="translate(13.901 36.066)" fill="#ffa244"/>
        <path id="Path_61" data-name="Path 61" d="M6.617,0S6.228.644,4.3.58A12.144,12.144,0,0,1,1.4.2L0,.615s2.8,2.1,5.376,1.85S7.481.725,7.481.725Z" transform="translate(20.344 36.139)" fill="#fff0e5"/>
        <path id="Path_62" data-name="Path 62" d="M18.146,3.726S10.729-.113,8.867,0,3.05,3.639,1.595,7.4,0,22.753,0,22.753l1.949-5.011A23.6,23.6,0,0,1,5.492,29.869c.232,7.487-2.737,11.367-2.737,11.367L6.182,39.24,4.645,41.235S17.891,34.914,18.6,31.081,11.019,14.095,11.79,10.2a6.228,6.228,0,0,1,3.955-4.86Z" transform="translate(0 1.098)" fill="#471100"/>
        <path id="Path_63" data-name="Path 63" d="M5.26.667A11.726,11.726,0,0,1,5,5c-.58,2.36-4.268,6.93-4.268,6.93L0,0Z" transform="translate(35.23 13.679)" fill="#471100"/>
        <path id="Path_64" data-name="Path 64" d="M.824,18.867c1.891,3.311,6.634,7.272,9.708,8.061a5.574,5.574,0,0,0,.76.133c3.317.377,8.067-1.444,9.163-2.865,1.16-1.525.922-2.72,1.792-7.011.29-1.444.725-3.578,1.009-5.8a16.945,16.945,0,0,0,.139-2.424,10.178,10.178,0,0,0-.226-2.105h0c-.58-2.749-2.517-5.179-7.22-6.292C-1.061-3.495-1.061,15.556.824,18.867Z" transform="translate(13.854 6.816)" fill="#f9933b"/>
        <path id="Path_65" data-name="Path 65" d="M7.812,4.336,7.046,4.4l-.8.052c-.406.029-.858.052-1.322.064h-.8A12.84,12.84,0,0,1,2.053,4.4C.255,4.1,0,3.083,0,3.083S3.294-.64,5.474.1,7.812,4.336,7.812,4.336Z" transform="translate(18.598 19.04)" fill="#fff"/>
        <path id="Path_66" data-name="Path 66" d="M3.424,2.393a2.673,2.673,0,0,1-.244.963l-.8.052c-.406.029-.858.052-1.322.064h-.8A2.644,2.644,0,0,1,.008,2.126C.107.885.948-.066,1.881,0A2.052,2.052,0,0,1,3.424,2.393Z" transform="translate(22.464 20.084)" fill="url(#linear-gradient)"/>
        <path id="Path_67" data-name="Path 67" d="M2.221,1.551a1.7,1.7,0,0,1-.452,1.067c-.406.029-.858.052-1.322.064a1.6,1.6,0,0,1-.435-1.3C.069.577.591-.044,1.229,0A1.3,1.3,0,0,1,2.221,1.551Z" transform="translate(23.075 20.873)" fill="#5b1800"/>
        <path id="Path_68" data-name="Path 68" d="M8.276,5.188S8.055.584,5.77.062C3.967-.344,0,1.39,0,1.39L.452,4.063S3.41,1.964,5.3,2.283A3.561,3.561,0,0,1,8.276,5.188Z" transform="translate(18.146 18.071)" fill="#5b1800"/>
        <path id="Path_69" data-name="Path 69" d="M5.956,3.173s-.052.406-.638.673a2.389,2.389,0,0,1-.632.174H4.541A4.268,4.268,0,0,1,3.52,4.008a3.353,3.353,0,0,1-.58-.093A26.467,26.467,0,0,1,0,3.144S3.323-.527,4.808.065,5.956,3.173,5.956,3.173Z" transform="translate(29.97 20.498)" fill="#fff"/>
        <path id="Path_70" data-name="Path 70" d="M2.567,2.206a3.967,3.967,0,0,1-.116.684,2.389,2.389,0,0,1-.632.174H1.674A4.268,4.268,0,0,1,.653,3.041a3.352,3.352,0,0,1-.58-.093A3.323,3.323,0,0,1,.01,2C.1.843.752-.05,1.459,0S2.66,1.046,2.567,2.206Z" transform="translate(32.837 21.465)" fill="url(#linear-gradient-2)"/>
        <path id="Path_71" data-name="Path 71" d="M1.645,1.411a1.908,1.908,0,0,1-.29.881H1.21A4.268,4.268,0,0,1,.2,2.281a1.78,1.78,0,0,1-.186-1C.068.535.485-.033.938,0S1.7.668,1.645,1.411Z" transform="translate(33.295 22.226)" fill="#5b1800"/>
        <path id="Path_72" data-name="Path 72" d="M0,4.015A7.875,7.875,0,0,1,3.961.089c1.572-.58,3.155,1.879,3.155,1.879l-1.16,1.7A2.04,2.04,0,0,0,3.932,2.194C2.372,2.31,0,4.015,0,4.015Z" transform="translate(29.953 19.627)" fill="#5b1800"/>
        <path id="Path_73" data-name="Path 73" d="M0,.255C0,.394.7.51,1.548.51S3.1.394,3.1.255,2.407,0,1.548,0,0,.11,0,.255Z" transform="translate(20.825 21.96)" fill="#fff"/>
        <ellipse id="Ellipse_1" data-name="Ellipse 1" cx="1.108" cy="0.162" rx="1.108" ry="0.162" transform="translate(32.006 23.23)" fill="#fff"/>
        <path id="Path_74" data-name="Path 74" d="M0,0A3.754,3.754,0,0,0,2.668,1.577,4.251,4.251,0,0,0,5.156.8,6.012,6.012,0,0,1,2.784.8,8.438,8.438,0,0,1,0,0Z" transform="translate(25.882 26.397)" fill="#e66a11"/>
        <path id="Path_75" data-name="Path 75" d="M7.475,2.285A17.467,17.467,0,0,0,4.407.893,21.139,21.139,0,0,0,0,0,21.3,21.3,0,0,0,4.4,1.966,6.992,6.992,0,0,0,7.475,2.285Z" transform="translate(22.82 28.682)" fill="#f93d31"/>
        <path id="Path_76" data-name="Path 76" d="M7.574,2.418S5.086,4.465,3.143,4.21C.91,3.914,0,0,0,0A15.444,15.444,0,0,0,4.4,1.966a16.626,16.626,0,0,0,3.172.452Z" transform="translate(22.82 28.653)" fill="#f94646"/>
        <path id="Path_77" data-name="Path 77" d="M0,0A45.143,45.143,0,0,0,5.15,2.32c1.328.348,3.955.661,3.955.661s-2.9.789-4.17.394A11.877,11.877,0,0,1,0,0Z" transform="translate(21.741 28.073)" fill="#5b1800"/>
        <path id="Path_78" data-name="Path 78" d="M.8,18.889c1.74,3.2,6.5,7.156,9.708,8.061a4.808,4.808,0,0,0,.76.133c-.98-.464-7.313-3.625-8.473-8.85C1.495,12.562,4.267,9.257,7.1,7.314s8.977-1.421,11.755-.238c1.96.835,3.6,3.068,4.4,4.3a16.945,16.945,0,0,0,.139-2.424L23.167,6.85h0C22.587,4.1,20.65,1.671,15.947.558-1.086-3.473-1.028,15.549.8,18.889Z" transform="translate(13.879 6.794)" fill="#e66a11"/>
        <path id="Path_79" data-name="Path 79" d="M8.27.357a8.667,8.667,0,0,0-5.138.1A6.379,6.379,0,0,0,0,3.292a5.934,5.934,0,0,1,3.271-2.07C5.121.966,7.481,1.854,8.27.357Z" transform="translate(18.007 14.104)" fill="#5b1800"/>
        <path id="Path_80" data-name="Path 80" d="M.031,0a5.735,5.735,0,0,1,2.65,1.7,5.388,5.388,0,0,1,1,3.364S3.308,3.074,2.362,2.534-.247.974.031,0Z" transform="translate(32.926 14.961)" fill="#5b1800"/>
        <path id="Path_81" data-name="Path 81" d="M6.544,2.057S3.233-.378.7.051,3.175,7.92,5.419,7.445,7.9,6.389,7.9,6.389Z" transform="translate(8.435 21.585)" fill="#e66a11"/>
        <path id="Path_82" data-name="Path 82" d="M6.629,2.884S6.136,1.6,3.514.46C.522-.845,0,1.04,0,1.04S.267.257,3.48,1.7,7.266,4.92,7.266,4.92Z" transform="translate(8.478 21.175)" fill="#f9933b"/>
        <path id="Path_83" data-name="Path 83" d="M0,3.676S6.269,8.164,11.059,9.434a24.757,24.757,0,0,0,10.3,0s-5.909-.818-9.627-3.648S5.77.648,2.934.057,0,3.676,0,3.676Z" transform="translate(22.142 4.825)" fill="#471100"/>
        <path id="Path_84" data-name="Path 84" d="M4.168,21.792l.992.539a6.553,6.553,0,0,1,1.659,1.519,31.887,31.887,0,0,1,1.34-9.029c1.34-3.642,5.8-6.327,5.8-6.327s.255-3.045,2.737-2.9a3.387,3.387,0,0,1,.736.128c2.244.58,4.953,3.2,9.07,5.614l.545.319c4.906,2.778,8.27,2.586,8.27,2.586a8.119,8.119,0,0,1-3.723-2.175,3.38,3.38,0,0,1-.278-.29C29.371,9.637,25.863,3.4,22.859,1.593a11.842,11.842,0,0,0-2.633-1.2C13.65-1.631,9.967,4.824,9.967,4.824A41.3,41.3,0,0,0,5.1,6.2c-2,.708-4.019,1.664-4.761,2.8a.7.7,0,0,0-.087.139C-1.214,11.73,4.168,21.792,4.168,21.792Z" transform="translate(8.179 0)" fill="#5b1800"/>
        <path id="Path_85" data-name="Path 85" d="M.98,0S6.124,5.364,11.309,7.5a44.659,44.659,0,0,0,6.24,2.32l-.667.76s-1.74.3-8.119-3.085S0,.394,0,.394Z" transform="translate(21.892 8.245)" fill="#471100"/>
        <path id="Path_86" data-name="Path 86" d="M0,5.341H0c2.244.58,4.953,3.2,9.07,5.614a44.387,44.387,0,0,0,4.813.441C11.935,9.244,8.426,3.01,5.422,1.2A11.842,11.842,0,0,0,2.789,0,8.519,8.519,0,0,1,1.311,3.665Z" transform="translate(25.615 0.393)" fill="#7c250a"/>
        <path id="Path_87" data-name="Path 87" d="M0,2.778A15.86,15.86,0,0,0,1.595,4.668c1.688,1.74,5.8,2.8,5.8,2.8L11.21,3.4a20.877,20.877,0,0,1-4.57-1.16A3.224,3.224,0,0,1,4.732,0C2.76.69.742,1.647,0,2.778Z" transform="translate(8.519 6.215)" fill="#7c250a"/>
        <path id="Path_88" data-name="Path 88" d="M8.169,0S2.724,2.273,1.013,6.083s-.737,8.8-.737,8.8l.58.725S.821,10.485,2.666,6.832A19.618,19.618,0,0,1,8.169.6Z" transform="translate(14.112 8.245)" fill="#471100"/>
      </g>
      <g id="Group_14" data-name="Group 14" transform="translate(18.912 41.445)">
        <path id="Path_156" data-name="Path 156" d="M15.358,0s-4.073.641-4.99,1.283S-1.175,29.5.107,30.785s16.63,0,16.63,0l1.174-4.432s-8.742-.436-9.21-1.11,2.565-8.1,2.565-8.1,1.007,9.19,1.449,13.148a29.341,29.341,0,0,0,1.6,7,9.915,9.915,0,0,0,8.735,4.489,9.325,9.325,0,0,0,8.523-4.816,43.5,43.5,0,0,0,1.321-8.6c0-4.021,1.026-12.269,1.026-12.269s4.707,7.914,4.13,8.831-9.524,2.867-9.524,2.867l.924,3.053S43.4,32.054,46.13,30.2,35.708,2.341,35.054,1.34,30.565.058,30.565.058Z" transform="translate(0.095 41.476)" fill="#81cadf"/>
        <path id="Path_157" data-name="Path 157" d="M0,.148,1.052,4.3s.834,1.712,3.7,1.712A5.932,5.932,0,0,0,9.107,4.329L10.031,0Z" transform="translate(18.006 35.626)" fill="#7b3e27"/>
        <path id="Path_158" data-name="Path 158" d="M0,3.194A39,39,0,0,1,4.387,1.328C6.567.584,8.754,0,8.754,0l-.7,3.207S7.119,4.893,3.822,4.893,0,3.194,0,3.194Z" transform="translate(19.058 36.736)" fill="#986036"/>
        <path id="Path_159" data-name="Path 159" d="M0,1.8S3.155,5.965,7.369,5.965,15.219,1.8,15.219,1.8l-2.873-.641L1.988,0Z" transform="translate(15.454 39.68)" fill="#5baac5"/>
        <path id="Path_161" data-name="Path 161" d="M3.4,2.009S2.652-.057,1.331,0-.272,2.355.241,3.984A11.544,11.544,0,0,0,4.4,9.423Z" transform="translate(6.683 17.283)" fill="#7b3e27"/>
        <path id="Path_162" data-name="Path 162" d="M25.763,17.708c0,4.566-1.315,11.333-3.386,14.469-2.354,3.579-5.7,3.207-9.492,3.207s-7.055.321-9.4-3.309C1.456,28.95,0,22.216,0,17.695,0,7.921,0,0,12.885,0,25.2.013,25.763,7.933,25.763,17.708Z" transform="translate(9.97 0.795)" fill="#7b3e27"/>
        <path id="Path_163" data-name="Path 163" d="M24.711,10.892c0,4.015-1.283,9.954-3.245,12.711-2.264,3.136-5.477,2.828-9.107,2.828s-6.747.276-8.979-2.905C1.392,20.781,0,14.868,0,10.892,0,2.311,6.413,1.5,13.135.245,19.709-.973,24.711,2.311,24.711,10.892Z" transform="translate(10.464 8.74)" fill="#986036"/>
        <path id="Path_164" data-name="Path 164" d="M6.125,23.521c-1.924-2.751-2.764-8.7-3.341-12.634C1.09-.523,16.662.118,17.028.079a12.827,12.827,0,0,0-3.893.16C6.426,1.49,0,2.3,0,10.886c0,3.976,1.392,9.883,3.348,12.634,2.264,3.207,5.349,2.905,8.979,2.905h.641C10.281,26.394,7.953,26.067,6.125,23.521Z" transform="translate(10.464 8.745)" fill="#805230" opacity="0.52"/>
        <path id="Path_165" data-name="Path 165" d="M0,0Z" transform="translate(23.843 35.171)" fill="#ffb989"/>
        <path id="Path_166" data-name="Path 166" d="M21.427,12.423c-2.264,3.143-5.477,2.848-9.107,2.848s-6.747.282-8.979-2.905C1.417,9.684.064,3.989,0,.019v.25C0,4.246,1.392,10.152,3.348,12.9c2.264,3.207,5.349,2.905,8.979,2.905s6.843.308,9.107-2.828c1.982-2.758,3.245-8.7,3.245-12.711V0C24.589,3.983,23.371,9.729,21.427,12.423Z" transform="translate(10.503 19.381)" fill="#764130"/>
        <path id="Path_167" data-name="Path 167" d="M1,2.009S1.751-.057,3.072,0s1.6,2.354,1.084,3.983A11.544,11.544,0,0,1,0,9.423Z" transform="translate(34.688 17.283)" fill="#7a442f"/>
        <path id="Path_168" data-name="Path 168" d="M.019,4.336A17.456,17.456,0,0,1,1.571.572C2.219-.191,2.79.309,2.79.309A1.283,1.283,0,0,0,1.02.4,3.848,3.848,0,0,0,0,1.989Z" transform="translate(35.714 17.302)" fill="#986036"/>
        <path id="Path_169" data-name="Path 169" d="M3.034,1.716l.083,1.526A7.343,7.343,0,0,0,1.366,1.011C.3.17,0,1.011,0,1.011S.513-.516,1.757.183A2.726,2.726,0,0,1,3.034,1.716Z" transform="translate(6.905 17.248)" fill="#805230"/>
        <path id="Path_170" data-name="Path 170" d="M4.445,4.188c0,2.315-.994,4.194-2.219,4.194S0,6.5,0,4.188.994,0,2.219,0,4.445,1.879,4.445,4.188Z" transform="translate(25.177 14.321)" fill="#fff"/>
        <path id="Path_171" data-name="Path 171" d="M3.322,2.193c0,1.225-.744,2.219-1.661,2.219S0,3.418,0,2.193.744,0,1.661,0,3.322.962,3.322,2.193Z" transform="translate(25.645 17.977)" fill="#4d4d4d"/>
        <path id="Path_172" data-name="Path 172" d="M2.379,1.591c0,.879-.532,1.591-1.193,1.591S0,2.469,0,1.591.532,0,1.186,0,2.379.712,2.379,1.591Z" transform="translate(25.94 18.58)"/>
        <path id="Path_173" data-name="Path 173" d="M4.445,4.207C4.445,1.924,3.45,0,2.219,0S0,1.924,0,4.207A3.117,3.117,0,0,1,2.623,2.617C4.1,2.565,4.445,4.207,4.445,4.207Z" transform="translate(25.177 14.129)" fill="#7b3e27"/>
        <ellipse id="Ellipse_3" data-name="Ellipse 3" cx="2.219" cy="4.188" rx="2.219" ry="4.188" transform="translate(16.025 14.321)" fill="#fff"/>
        <path id="Path_174" data-name="Path 174" d="M0,2.193C0,3.418.744,4.412,1.661,4.412s1.661-.994,1.661-2.219S2.578,0,1.661,0,0,.962,0,2.193Z" transform="translate(16.788 17.977)" fill="#4d4d4d"/>
        <path id="Path_175" data-name="Path 175" d="M0,1.591c0,.879.532,1.591,1.193,1.591s1.186-.712,1.186-1.591S1.847,0,1.193,0,0,.712,0,1.591Z" transform="translate(17.436 18.58)"/>
        <path id="Path_176" data-name="Path 176" d="M0,4.207C0,1.924.994,0,2.219,0S4.438,1.873,4.438,4.188A3.117,3.117,0,0,0,1.815,2.6C.34,2.565,0,4.207,0,4.207Z" transform="translate(16.025 14.129)" fill="#7b3e27"/>
        <path id="Path_177" data-name="Path 177" d="M1.744.276c0,.148-.391.269-.872.269S0,.423,0,.276.391,0,.872,0,1.744.122,1.744.276Z" transform="translate(27.306 19.202)" fill="#fff"/>
        <path id="Path_178" data-name="Path 178" d="M1.751.276c0,.148-.391.269-.872.269S0,.423,0,.276.391,0,.872,0,1.751.122,1.751.276Z" transform="translate(16.493 19.202)" fill="#fff"/>
        <path id="Path_179" data-name="Path 179" d="M0,0S1.283,3.162,3.527,2.091C4.38,1.68,4.682.019,4.682.019S2.161,1.154,1.328.956A2.52,2.52,0,0,1,0,0Z" transform="translate(20.662 24.948)" fill="#7b3e27"/>
        <path id="Path_180" data-name="Path 180" d="M0,0A4.361,4.361,0,0,0,2.277.673,5.246,5.246,0,0,0,4.682.032,3.328,3.328,0,0,1,2.334,1.546,3.3,3.3,0,0,1,0,0Z" transform="translate(20.662 24.948)" fill="#5b1800"/>
        <path id="Path_181" data-name="Path 181" d="M0,2.764A9.364,9.364,0,0,0,4.778,2.8,21.037,21.037,0,0,0,10.351,0S8.479,3.386,5.862,4.2A6.183,6.183,0,0,1,0,2.764Z" transform="translate(19.174 26.584)" fill="#5b1800"/>
        <path id="Path_182" data-name="Path 182" d="M0,1.174a6.606,6.606,0,0,0,1.821-.1A7.209,7.209,0,0,0,4.156,0,4.066,4.066,0,0,1,2.488,1.558,3.894,3.894,0,0,1,0,1.174Z" transform="translate(22.791 30.804)" fill="#7b3e27"/>
        <path id="Path_183" data-name="Path 183" d="M0,0A4.355,4.355,0,0,1,1.482,1.11a4.008,4.008,0,0,1,.866,1.514A5.939,5.939,0,0,0,1.841.763C1.462.1,0,0,0,0Z" transform="translate(28.037 25.474)" fill="#7b3e27"/>
        <path id="Path_184" data-name="Path 184" d="M2.373.282c0,.154-.532.282-1.186.282S0,.436,0,.282.532,0,1.186,0,2.373.122,2.373.282Z" transform="translate(21.816 24.108)" fill="#ac7043"/>
        <path id="Path_185" data-name="Path 185" d="M22.953,6.618S18.567,7.491,12.6,8.542s-8.152,4.194-8.152,4.194L5.522,9.909a14.6,14.6,0,0,0-2.495,4.22,14.11,14.11,0,0,0-.641,5.484,11.608,11.608,0,0,0-1.219-1.77,1.924,1.924,0,0,0-.949-.584s-1.484-9.729,3.3-13.874S19.987-1.079,25.194,2.322s4.031,15.014,4.031,15.014A2.732,2.732,0,0,0,28,18.5a5.868,5.868,0,0,0-.789,1.661,25.012,25.012,0,0,0-.584-7.895C25.859,9.286,22.953,6.618,22.953,6.618Z" transform="translate(8.06 0)"/>
        <path id="Path_187" data-name="Path 187" d="M0,2.059l1.193.68s1.071.782,3.463.077A5.881,5.881,0,0,0,7.824.673L7.728,0A10.377,10.377,0,0,1,3.976,1.847,8.613,8.613,0,0,1,0,2.059Z" transform="translate(20.213 27.597)" fill="#fff"/>
        <path id="Path_188" data-name="Path 188" d="M.592.356c.257.257.41.513.34.577S.611.85.355.593-.049.08.015.016.342.086.592.356Z" transform="translate(28.811 26.228)" fill="#ac7043"/>
        <path id="Path_189" data-name="Path 189" d="M0,1.924s1.924-.333,3.6-.789S6.811.1,6.811.1A9.845,9.845,0,0,0,3.976.1,13.112,13.112,0,0,0,0,1.924Z" transform="translate(13.767 12.5)" fill="#7b3e27"/>
        <path id="Path_190" data-name="Path 190" d="M6.49,0A19.439,19.439,0,0,0,2.084,1.167,5,5,0,0,0,0,2.963l.263,1.02a15.643,15.643,0,0,1,3.944-1.52,9.19,9.19,0,0,1,2.854-.3L7.157,0,6.644,1.052Z" transform="translate(13.504 10.441)"/>
        <path id="Path_191" data-name="Path 191" d="M0,.1S1.244.578,3.29,1.168A22.775,22.775,0,0,0,6.8,1.925,11.127,11.127,0,0,0,3.592.232,10.082,10.082,0,0,0,0,.1Z" transform="translate(24.702 12.499)" fill="#7b3e27"/>
        <path id="Path_192" data-name="Path 192" d="M.686,0a19.42,19.42,0,0,1,4.4,1.167,5.054,5.054,0,0,1,2.091,1.8l-.269,1.02a15.642,15.642,0,0,0-3.944-1.52,9.184,9.184,0,0,0-2.854-.3L0,0,.353.673Z" transform="translate(24.593 10.441)"/>
        <ellipse id="Ellipse_4" data-name="Ellipse 4" cx="0.276" cy="0.212" rx="0.276" ry="0.212" transform="translate(21.085 24.243)" fill="#ac7043"/>
        <path id="Path_200" data-name="Path 200" d="M3.136,0l-1.1.532L0,3.373l5.009,6L6.766,3.143l.75-.956A23.03,23.03,0,0,1,4.4,1.212C3.271.718,3.136,0,3.136,0Z" transform="translate(15.454 38.102)" fill="#81cadf"/>
        <path id="Path_201" data-name="Path 201" d="M4.38,0l1.1.532L7.517,3.373l-5.015,6L.705,3.143,0,2.187a23.328,23.328,0,0,0,3.117-.975C4.239.718,4.38,0,4.38,0Z" transform="translate(23.156 38.102)" fill="#81cadf"/>
        <path id="Path_202" data-name="Path 202" d="M0,2.187l.782.956a8,8,0,0,0,2.9-.956A4.226,4.226,0,0,0,5.477.532L4.38,0S4.239.879,2.957,1.34,0,2.187,0,2.187Z" transform="translate(23.156 38.102)" fill="#92dfef"/>
        <path id="Path_203" data-name="Path 203" d="M5.419,2.187A23.031,23.031,0,0,1,2.3,1.212C1.174.718,1.02,0,1.02,0L0,.494A4.387,4.387,0,0,0,1.821,2.11,9.486,9.486,0,0,0,4.65,3.143Z" transform="translate(17.551 38.102)" fill="#92dfef"/>
        <path id="Path_204" data-name="Path 204" d="M2.6,1.757a1.661,1.661,0,0,0-1.283.269A5.221,5.221,0,0,0,0,3.457L.705.956,1.456,0h.186l.705.956Z" transform="translate(21.495 40.289)" fill="#0091a9"/>
        <path id="Path_205" data-name="Path 205" d="M0,6.093,1.661,0,1.95.1.192,6.33Z" transform="translate(20.27 41.148)" fill="#92dfef"/>
        <path id="Path_206" data-name="Path 206" d="M0,.032,1.712,6.266l.237-.282L.237,0Z" transform="translate(23.945 41.213)" fill="#92dfef"/>
        <path id="Path_218" data-name="Path 218" d="M.564,1.244s.346-.071,1.456-.186S5.022.2,6.971.025,11.9.6,12.186,1.173s-3.534-.135-3.534-.135,4.079.943,4.079,1.366c0,.641-4.489-.237-4.489-.237s3.8.641,3.848,1.071c.1.59-3.611.115-3.611.115a16.983,16.983,0,0,1,2.777.4l.18.192h-8.4L0,3.354Z" transform="translate(14.101 68.303)" fill="#986036"/>
        <path id="Path_219" data-name="Path 219" d="M0,0A19.339,19.339,0,0,0,4.207,4.65,13.52,13.52,0,0,0,7.132,6.266L8.222,4.1,9.5,6.266A13.1,13.1,0,0,0,14.244,3.5,8.338,8.338,0,0,0,16.585,0S13.16,3.906,8.2,3.906A11.668,11.668,0,0,1,0,0Z" transform="translate(14.659 79.11)" fill="#5baac5"/>
        <path id="Path_220" data-name="Path 220" d="M11.651.159s-1.167-.59-1.623.5S-1.632,28.738.2,30.162s16.63,0,16.63,0l1.174-4.432-8.78-1.68c-.43-1.334,2.136-7.581,2.136-7.581Z" transform="translate(0 42.131)" fill="#81cadf"/>
        <path id="Path_221" data-name="Path 221" d="M3.466,4.278S.972,10.6,1.279,11.461,10.1,13.526,10.1,13.526,1.651,13.3.26,12.1,3.524,0,3.524,0Z" transform="translate(7.896 54.322)" fill="#5baac5"/>
        <path id="Path_222" data-name="Path 222" d="M0,2.84A14.794,14.794,0,0,1,3.957.088c1.6-.513,11.1,1.372,11.1,1.372l-.231.891a73.686,73.686,0,0,0-9.306-.4A38.575,38.575,0,0,0,0,2.84Z" transform="translate(2.954 66.387)" fill="#92dfef"/>
        <path id="Path_223" data-name="Path 223" d="M.968,0,3.585.038,3.04,4.675H0Z" transform="translate(15.743 67.604)" fill="#fff"/>
        <path id="Path_224" data-name="Path 224" d="M5.92.192A5.294,5.294,0,0,0,3.252.077,5.483,5.483,0,0,0,0,1.706,14.529,14.529,0,0,1,4.188.519,12.66,12.66,0,0,1,6.753.673Z" transform="translate(3.262 65.59)" fill="#5baac5"/>
        <path id="Path_225" data-name="Path 225" d="M4.233,3.38A10.544,10.544,0,0,0,2.1,1.238,7.844,7.844,0,0,0,0,0,22.081,22.081,0,0,1,3.168,1.238a4,4,0,0,1,1.4,1.122Z" transform="translate(4.769 61.793)" fill="#5baac5"/>
        <path id="Path_226" data-name="Path 226" d="M3.816.688A9.15,9.15,0,0,0,0,0a7.94,7.94,0,0,1,2.783,1.09c1.693.975,1.751,1.546,1.751,1.546A1.469,1.469,0,0,0,3.816.688Z" transform="translate(2.954 62.657)" fill="#92dfef"/>
        <path id="Path_227" data-name="Path 227" d="M0,6A43.027,43.027,0,0,1,8.37,7.51a23.546,23.546,0,0,1,4.893,1.834L12.853.417,10.21,0,5.195,6,4.457,3.842a5.015,5.015,0,0,1-1.924.327A6.164,6.164,0,0,1,.609,3.925Z" transform="translate(20.463 41.476)" fill="#92dfef"/>
        <path id="Path_228" data-name="Path 228" d="M18.631,0a46.369,46.369,0,0,1,.289,10.043c-.513,4.489-3.553,13.205-5.9,13.859S0,24.9,0,24.9a12.019,12.019,0,0,0,1.033,3.784c.712,1.065,2.379,4.271,8.459,4.271a10.467,10.467,0,0,0,8.8-4.618s.9-6.125,1.488-12.263.859-8.607.859-8.607l-.3-6.708Z" transform="translate(13.389 50.044)" fill="#5baac5"/>
        <path id="Path_229" data-name="Path 229" d="M.167,0A78.169,78.169,0,0,0,.994,8.1c.641,3.707,3.848,10.011,3.848,10.011L.93,17.361,0,9.2Z" transform="translate(11.362 49.403)" fill="#5baac5"/>
        <path id="Path_230" data-name="Path 230" d="M12.166,1.737s-.346-.071-1.456-.18S7.311.2,5.535.006C4.624-.091.827,1.1.545,1.667s3.534-.128,3.534-.128S0,2.481,0,2.9c0,.641,4.489-.244,4.489-.244S.693,3.3.641,3.732c-.1.6,3.611.115,3.611.115a16.379,16.379,0,0,0-2.777.4l-.18.186h8.4l3.034-.59Z" transform="translate(20.469 67.842)" fill="#986036"/>
        <path id="Path_231" data-name="Path 231" d="M3.611.025a1.783,1.783,0,0,1,1.86.9c.641,1.142,14.712,28.1,11.236,29.265S.968,30.5.968,30.5L0,26.872s7.4-2.2,7.882-3.271-3.559-7.94-3.559-7.94Z" transform="translate(29.705 41.867)" fill="#81cadf"/>
        <path id="Path_232" data-name="Path 232" d="M4.316,5.047,4.1,0s6.074,11.7,6.227,12.827S0,16.239,0,16.239s7.266-1.828,7.882-3.271S4.316,5.047,4.316,5.047Z" transform="translate(29.711 52.481)" fill="#5baac5"/>
        <path id="Path_233" data-name="Path 233" d="M0,.562A17.124,17.124,0,0,1,3.489.023,3.463,3.463,0,0,1,6.7,1.434,13.923,13.923,0,0,0,4.021.665,3.572,3.572,0,0,0,2.514.8a8.979,8.979,0,0,1,2.245.936A3.771,3.771,0,0,1,6.086,3.487,12.07,12.07,0,0,0,3.431,1.665a4.425,4.425,0,0,0-1.924-.224Z" transform="translate(38.337 64.13)" fill="#5baac5"/>
        <path id="Path_234" data-name="Path 234" d="M0,.068A4.759,4.759,0,0,1,1.8.106a9.742,9.742,0,0,1,1.853.75S2.431.51,1.61.376,0,.068,0,.068Z" transform="translate(41.146 64.804)" fill="#92dfef"/>
        <path id="Path_235" data-name="Path 235" d="M11.493.084c1.546.686,3.7,3.38,3.7,3.38a56.726,56.726,0,0,0-9.088-.257A23.14,23.14,0,0,0,.269,4.221L0,3.207S9.947-.609,11.493.084Z" transform="translate(29.705 65.532)" fill="#92dfef"/>
        <path id="Path_236" data-name="Path 236" d="M.122,0a47.992,47.992,0,0,1,3.8,8.209c1.494,4.489.346,13.609.346,13.609A32.632,32.632,0,0,1,.943,13.827,29.835,29.835,0,0,1,0,7.113Z" transform="translate(11.529 42.29)" fill="#92dfef"/>
        <path id="Path_240" data-name="Path 240" d="M.423.154,1.148,0A10.582,10.582,0,0,0,1.3,2.8l.289.962H0Z" transform="translate(18.783 68.489)" fill="#7b3e27"/>
        <path id="Path_241" data-name="Path 241" d="M1.353,0S.353.3.366.641s1.283.372,1.283.372S-.013,1.443,0,1.744s1.552.4,1.552.4-.885.231-.891.423.834.519.834.519L4.348,2.45S.892,3.264.8,2.591C.75,2.258,4.849,1.4,4.849,1.4S.359,2.476.173,1.725C.083,1.3,4.849.269,4.849.269A30.075,30.075,0,0,1,.6.564C.564.366,1.353,0,1.353,0Z" transform="translate(20.45 69.015)" fill="#7b3e27"/>
        <path id="Path_242" data-name="Path 242" d="M0,0A.866.866,0,0,1,.257.526c.09.41.321.224.359-.1S0,0,0,0Z" transform="translate(26.575 68.489)" fill="#7b3e27"/>
        <path id="Path_243" data-name="Path 243" d="M.085.164c0,.282-.224.68.058.641a.468.468,0,0,0,.3-.641C.341-.08.085-.028.085.164Z" transform="translate(26.958 69.588)" fill="#7b3e27"/>
        <path id="Path_244" data-name="Path 244" d="M0,0,1.578,3.893H5.124A16.623,16.623,0,0,1,1.7,2.181,4.444,4.444,0,0,1,0,0Z" transform="translate(31 68.386)" fill="#5baac5"/>
        <path id="Path_245" data-name="Path 245" d="M5.073,0,4.156,4.432H0A7.119,7.119,0,0,0,3.675,2.508C5.092.917,5.073,0,5.073,0Z" transform="translate(11.587 67.848)" fill="#5baac5"/>
        <path id="Path_246" data-name="Path 246" d="M2.1,0,0,.481,2.1.141Z" transform="translate(24.625 70.06)" fill="#7b3e27"/>
        <path id="Path_247" data-name="Path 247" d="M1.809,0,0,.269H1.918Z" transform="translate(24.914 71.176)" fill="#7b3e27"/>
        <path id="Path_248" data-name="Path 248" d="M4.2,2.945s-.75-.564-1.494-1.1S.953-.12.267.008c-.4.077-.519,1.36.859,2.1A23.427,23.427,0,0,0,3.954,3Z" transform="translate(24.878 65.736)" fill="#986036"/>
        <path id="Path_249" data-name="Path 249" d="M0,2.676a8.941,8.941,0,0,0,2.328-.93C3.373,1.1,4.534-.268,4.893.046s.231,1.071-.115,1.488A8.2,8.2,0,0,1,2.892,2.4Z" transform="translate(19.206 65.967)" fill="#986036"/>
        <path id="Path_280" data-name="Path 280" d="M7.94.113S6.753-.265,6.458.363,0,16.711,0,16.711a12.185,12.185,0,0,0,4.207-4.4A89.416,89.416,0,0,0,7.882,3.467Z" transform="translate(3.711 42.177)" fill="#92dfef"/>
        <path id="Path_281" data-name="Path 281" d="M0,3.771s1.834-.443,2.315-1.206A7.529,7.529,0,0,0,2.912,0l.257.192,1.084,3.6Z" transform="translate(25.908 68.476)" fill="#7b3e27"/>
        <path id="Path_282" data-name="Path 282" d="M0,.032,1.988,0,3.611,4.008H.59Z" transform="translate(28.967 68.271)" fill="#fff"/>
        <ellipse id="Ellipse_5" data-name="Ellipse 5" cx="0.815" cy="0.25" rx="0.815" ry="0.25" transform="translate(15.454 23.883)" fill="#7b3e27" opacity="0.5"/>
        <path id="Path_283" data-name="Path 283" d="M1.077.224c0,.122-.244.224-.539.224S0,.346,0,.224.244,0,.539,0,1.077.128,1.077.224Z" transform="translate(17.372 25.448)" fill="#7b3e27" opacity="0.5"/>
        <ellipse id="Ellipse_6" data-name="Ellipse 6" cx="0.552" cy="0.18" rx="0.552" ry="0.18" transform="translate(30.391 24.55)" fill="#7b3e27" opacity="0.5"/>
        <path id="Path_284" data-name="Path 284" d="M.84.122C.84.186.654.237.417.237S0,.186,0,.122.186,0,.417,0,.84.058.84.122Z" transform="translate(30.942 22.928)" fill="#7b3e27" opacity="0.5"/>
        <path id="Path_285" data-name="Path 285" d="M.423.212A.212.212,0,1,1,.212,0,.212.212,0,0,1,.423.212Z" transform="translate(31.962 25.698)" fill="#7b3e27" opacity="0.5"/>
        <path id="Path_286" data-name="Path 286" d="M1.565.289c0,.154-.353.289-.782.289S0,.443,0,.289.346,0,.782,0,1.565.128,1.565.289Z" transform="translate(13.325 24.666)" fill="#7b3e27" opacity="0.5"/>
        <path id="Path_287" data-name="Path 287" d="M1.8.244c0,.135-.4.25-.9.25S0,.378,0,.244.4,0,.9,0,1.8.109,1.8.244Z" transform="translate(28.037 23.64)" fill="#7b3e27" opacity="0.5"/>
      </g>
      <g id="Group_668" data-name="Group 668" transform="translate(22.417 18.658)">
        <g id="star" transform="translate(0 5.145)">
          <path id="Path_583" data-name="Path 583" d="M11.543,15.982a.339.339,0,0,0-.273-.23l-3.583-.521-1.6-3.247a.339.339,0,0,0-.607,0l-1.6,3.247L.29,15.752a.339.339,0,0,0-.188.578L2.7,18.857l-.612,3.569a.339.339,0,0,0,.491.357L5.78,21.1l3.2,1.685a.339.339,0,0,0,.491-.357l-.612-3.569,2.593-2.528A.339.339,0,0,0,11.543,15.982Z" transform="translate(0 -11.795)" fill="#fed42d"/>
          <path id="Path_584" data-name="Path 584" d="M261.764,15.982a.338.338,0,0,0-.273-.23l-3.583-.521-1.6-3.247a.339.339,0,0,0-.3-.189v9.3l3.2,1.685a.339.339,0,0,0,.491-.357l-.612-3.569,2.593-2.528A.339.339,0,0,0,261.764,15.982Z" transform="translate(-250.221 -11.795)" fill="#fcbf29"/>
        </g>
        <g id="star-2" data-name="star" transform="translate(53.115 5.145)">
          <path id="Path_583-2" data-name="Path 583" d="M.017,15.982a.339.339,0,0,1,.273-.23l3.583-.521,1.6-3.247a.339.339,0,0,1,.607,0l1.6,3.247,3.583.521a.339.339,0,0,1,.188.578L8.864,18.857l.612,3.569a.339.339,0,0,1-.491.357L5.78,21.1l-3.2,1.685a.339.339,0,0,1-.491-.357L2.7,18.857.1,16.329A.339.339,0,0,1,.017,15.982Z" transform="translate(0 -11.795)" fill="#fed42d"/>
          <path id="Path_584-2" data-name="Path 584" d="M256.018,15.982a.339.339,0,0,1,.273-.23l3.583-.521,1.6-3.247a.339.339,0,0,1,.3-.189v9.3l-3.2,1.685a.339.339,0,0,1-.491-.357l.612-3.569L256.1,16.329A.339.339,0,0,1,256.018,15.982Z" transform="translate(-256.001 -11.795)" fill="#fcbf29"/>
        </g>
        <g id="star-3" data-name="star" transform="translate(7.966 2.582)">
          <path id="Path_583-3" data-name="Path 583" d="M16.907,17.928a.5.5,0,0,0-.4-.338l-5.249-.763L8.911,12.071a.5.5,0,0,0-.89,0L5.673,16.828.425,17.59a.5.5,0,0,0-.275.846l3.8,3.7-.9,5.228a.5.5,0,0,0,.72.523l4.695-2.468,4.694,2.468a.5.5,0,0,0,.72-.523l-.9-5.228,3.8-3.7A.5.5,0,0,0,16.907,17.928Z" transform="translate(0 -11.795)" fill="#fed42d"/>
          <path id="Path_584-3" data-name="Path 584" d="M264.442,17.928a.5.5,0,0,0-.4-.338l-5.249-.763-2.347-4.756A.5.5,0,0,0,256,11.8V25.421l4.694,2.468a.5.5,0,0,0,.72-.523l-.9-5.228,3.8-3.7A.5.5,0,0,0,264.442,17.928Z" transform="translate(-247.535 -11.795)" fill="#fcbf29"/>
        </g>
        <g id="star-4" data-name="star" transform="translate(39.777 2.582)">
          <path id="Path_583-4" data-name="Path 583" d="M.024,17.928a.5.5,0,0,1,.4-.338l5.249-.763,2.347-4.756a.5.5,0,0,1,.89,0l2.347,4.756,5.249.763a.5.5,0,0,1,.275.846l-3.8,3.7.9,5.228a.5.5,0,0,1-.72.523L8.466,25.421,3.771,27.889a.5.5,0,0,1-.72-.523l.9-5.228-3.8-3.7A.5.5,0,0,1,.024,17.928Z" transform="translate(0 -11.795)" fill="#fed42d"/>
          <path id="Path_584-4" data-name="Path 584" d="M256.025,17.928a.5.5,0,0,1,.4-.338l5.249-.763,2.347-4.756a.5.5,0,0,1,.445-.276V25.421l-4.694,2.468a.5.5,0,0,1-.72-.523l.9-5.228-3.8-3.7A.5.5,0,0,1,256.025,17.928Z" transform="translate(-256.001 -11.795)" fill="#fcbf29"/>
        </g>
        <g id="star-5" data-name="star" transform="translate(20.294)">
          <path id="Path_583-5" data-name="Path 583" d="M22.313,19.889a.654.654,0,0,0-.528-.446l-6.927-1.007-3.1-6.277a.655.655,0,0,0-1.174,0l-3.1,6.277L.561,19.443A.655.655,0,0,0,.2,20.56L5.21,25.446l-1.183,6.9a.655.655,0,0,0,.95.69l6.2-3.257,6.2,3.257a.655.655,0,0,0,.95-.69l-1.183-6.9,5.013-4.886A.654.654,0,0,0,22.313,19.889Z" transform="translate(0 -11.795)" fill="#fed42d"/>
          <path id="Path_584-5" data-name="Path 584" d="M267.141,19.889a.654.654,0,0,0-.528-.446l-6.927-1.007-3.1-6.277a.655.655,0,0,0-.587-.365V29.778l6.2,3.257a.655.655,0,0,0,.95-.69l-1.183-6.9,5.013-4.886A.654.654,0,0,0,267.141,19.889Z" transform="translate(-244.829 -11.795)" fill="#fcbf29"/>
        </g>
      </g>
    </g>
  </g>
</svg>
