<svg xmlns="http://www.w3.org/2000/svg" width="26.077" height="23.648" viewBox="0 0 26.077 23.648">
  <g id="customer-care" opacity="0.7">
    <g id="Group_2789" data-name="Group 2789" transform="translate(0 0)">
      <path id="Path_3856" data-name="Path 3856" d="M17.03,196.13H18.2v4.863h-1.2a1.315,1.315,0,0,1-1.313-1.313v-2.237a1.314,1.314,0,0,1,1.313-1.313Z" transform="translate(-15.68 -184.579)" fill="#fff"/>
      <path id="Path_3857" data-name="Path 3857" d="M351.276,197.433v2.237a1.315,1.315,0,0,1-1.313,1.313h-1.2V196.12h1.2A1.315,1.315,0,0,1,351.276,197.433Z" transform="translate(-325.199 -184.57)" fill="#fff"/>
      <path id="Path_3858" data-name="Path 3858" d="M99.941,73.554a3.336,3.336,0,0,1-.614,1.978c-.091.15-.463.715-.708,1.053l-.006-.013a14.626,14.626,0,0,0-1.7-2.68,8.5,8.5,0,0,0-.724-.844,6.959,6.959,0,0,0-.871-.713l-.021-.015a1.13,1.13,0,0,0-.586-.264.406.406,0,0,0-.088.009.37.37,0,0,0-.243.173,2.546,2.546,0,0,1-.827.856,3.173,3.173,0,0,1-1.89.36h-.05c-.088,0-2.2-.05-4.517.11l-.107.007a6.13,6.13,0,0,0-2.529.539,3.231,3.231,0,0,0-1.506,2.143,6.826,6.826,0,0,1-.11-.733l0-.019a9.377,9.377,0,0,1-.027-2.894,6.574,6.574,0,0,1,1.481-2.1,12.739,12.739,0,0,1,5.635-2.654,12.535,12.535,0,0,1,3.4-.266,10.849,10.849,0,0,1,1.906.279,2.067,2.067,0,0,1,1.178.7,3.2,3.2,0,0,1,.313.61,2.916,2.916,0,0,0,.528.9,5.2,5.2,0,0,0,.8.661,5.015,5.015,0,0,1,.683.548A4.286,4.286,0,0,1,99.941,73.554Z" transform="translate(-77.982 -65.106)" fill="#fff"/>
      <path id="Path_3859" data-name="Path 3859" d="M209.738,296.751v.049a.552.552,0,0,1-.552.552h-.834a.552.552,0,0,1-.552-.552v-.1a.552.552,0,0,1,.552-.552h.834a.552.552,0,0,1,.552.552Z" transform="translate(-194.21 -277.524)" fill="#fff"/>
      <path id="Path_3860" data-name="Path 3860" d="M91.667,144.469a2.21,2.21,0,0,1,1.319,2.373,3.42,3.42,0,0,1-.516,1.6,1.655,1.655,0,0,1-1.06.8.287.287,0,0,0-.233.223,11,11,0,0,1-.506,1.71H87.224a1.126,1.126,0,0,0-1.1-.888h-.834a1.126,1.126,0,0,0-1.125,1.125v.1a1.126,1.126,0,0,0,1.125,1.125h.834a1.126,1.126,0,0,0,1.1-.888h3.2a7.715,7.715,0,0,1-1.08,1.7,7.5,7.5,0,0,1-1.415,1.3,6.2,6.2,0,0,1-2.149.981,6.445,6.445,0,0,1-2.78,0,6.984,6.984,0,0,1-2.825-1.4,7.382,7.382,0,0,1-2.194-3.13,9,9,0,0,1-.39-1.66.287.287,0,0,0-.2-.237,2.945,2.945,0,0,1-1.95-2.179,2.7,2.7,0,0,1,.942-2.7.353.353,0,0,0,.149-.231,3.244,3.244,0,0,1,1.368-2.449,5.7,5.7,0,0,1,2.3-.473l.108-.007c2.294-.158,4.442-.11,4.464-.109h.049a3.735,3.735,0,0,0,2.208-.447,3.073,3.073,0,0,0,.927-.911c.068.04.149.1.183.12l.022.016a6.479,6.479,0,0,1,.8.652,8.188,8.188,0,0,1,.675.789,14.073,14.073,0,0,1,1.64,2.582,2.115,2.115,0,0,0,.248.429l.019.02.01.009.008.006.008.006A.326.326,0,0,0,91.667,144.469Z" transform="translate(-71.148 -132.225)" fill="#fff"/>
      <g id="Group_2788" data-name="Group 2788" transform="translate(1.082 0)">
        <path id="Path_3861" data-name="Path 3861" d="M302.179,272.71v.632a1.916,1.916,0,0,1-1.914,1.914h-3.2c.03-.07.061-.141.091-.213.049-.118.095-.238.139-.36h2.975a1.342,1.342,0,0,0,1.34-1.341v-.614h.314A1.723,1.723,0,0,0,302.179,272.71Z" transform="translate(-278.238 -255.742)" fill="#fff"/>
        <path id="Path_3862" data-name="Path 3862" d="M54.892,43.832a1.9,1.9,0,0,0-.23-.014h-.347a11.425,11.425,0,0,0-22.759,0H31.21a1.893,1.893,0,0,0-.23.014,11.836,11.836,0,0,1,1.125-4.141,12.057,12.057,0,0,1,10.831-6.85,11.843,11.843,0,0,1,4.66.947,12.069,12.069,0,0,1,7.3,10.045Z" transform="translate(-30.98 -32.84)" fill="#fff"/>
      </g>
    </g>
  </g>
</svg>
